<?xml version="1.0" encoding="UTF-8" standalone="no"?>
<!-- Generator: Adobe Illustrator 17.0.0, SVG Export Plug-In . SVG Version: 6.00 Build 0)  -->

<svg
   version="1.1"
   id="Layer_1"
   x="0px"
   y="0px"
   width="149.93401"
   height="285.26599"
   viewBox="0 0 149.93401 285.26599"
   enable-background="new 0 0 1400 980"
   xml:space="preserve"
   sodipodi:docname="TARDIS.svg"
   inkscape:version="1.2.2 (b0a8486541, 2022-12-01)"
   xmlns:inkscape="http://www.inkscape.org/namespaces/inkscape"
   xmlns:sodipodi="http://sodipodi.sourceforge.net/DTD/sodipodi-0.dtd"
   xmlns="http://www.w3.org/2000/svg"
   xmlns:svg="http://www.w3.org/2000/svg"><defs
   id="defs2119">
	

		
		
	
			
			
			
			
		
			
			
			
		
	
	
</defs><sodipodi:namedview
   id="namedview2117"
   pagecolor="#ffffff"
   bordercolor="#666666"
   borderopacity="1.0"
   inkscape:showpageshadow="2"
   inkscape:pageopacity="0.0"
   inkscape:pagecheckerboard="0"
   inkscape:deskcolor="#d1d1d1"
   showgrid="false"
   inkscape:zoom="0.68113143"
   inkscape:cx="4.4044363"
   inkscape:cy="184.98633"
   inkscape:window-width="1920"
   inkscape:window-height="1115"
   inkscape:window-x="0"
   inkscape:window-y="0"
   inkscape:window-maximized="1"
   inkscape:current-layer="Layer_1" />
<g
   id="g292"
   transform="translate(-1038.061,-184.613)">
		<g
   id="g12">
			<g
   id="g6">
				<polygon
   fill="#1a48a4"
   points="1119.594,210.092 1106.463,210.092 1106.463,190.859 1113.028,186.022 1119.594,190.859 "
   id="polygon4" />
			</g>
			<g
   id="g10">
				<path
   fill="#ffffff"
   d="m 1113.028,187.431 5.431,4.001 v 17.525 h -10.861 v -17.525 l 5.43,-4.001 m 0,-2.818 -1.346,0.992 -5.431,4.001 -0.923,0.68 v 1.147 17.525 2.269 h 2.269 10.861 2.269 v -2.269 -17.525 -1.147 l -0.923,-0.68 -5.431,-4.001 z"
   id="path8" />
			</g>
		</g>
		<g
   id="g22">
			<g
   id="g16">
				<polygon
   fill="#1c75bc"
   points="1186.86,459.268 1186.86,468.744 1039.197,468.744 1039.197,459.268 1045.725,454.553 1180.332,454.553 "
   id="polygon14" />
			</g>
			<g
   id="g20">
				<path
   fill="#ffffff"
   d="m 1179.965,455.688 5.76,4.161 v 7.761 h -72.697 -72.697 v -7.761 l 5.76,-4.161 h 133.874 m 0.734,-2.269 h -0.734 -133.874 -0.734 l -0.595,0.43 -5.76,4.161 -0.941,0.679 v 1.16 7.761 2.269 h 2.269 72.697 72.697 2.269 v -2.269 -7.761 -1.16 l -0.941,-0.679 -5.76,-4.161 z"
   id="path18" />
			</g>
		</g>
		<g
   id="g74">
			<g
   id="g32">
				<g
   id="g26">
					<rect
   x="1050"
   y="213.87399"
   fill="#1c75bc"
   width="126.057"
   height="10.338"
   id="rect24" />
				</g>
				<g
   id="g30">
					<path
   fill="#ffffff"
   d="m 1174.922,215.009 v 8.069 h -123.788 v -8.069 h 123.788 m 2.27,-2.27 h -2.269 -123.788 -2.269 v 2.269 8.069 2.269 h 2.269 123.788 2.269 v -2.269 -8.069 z"
   id="path28" />
				</g>
			</g>
			<g
   id="g42">
				<g
   id="g36">
					<rect
   x="1044.957"
   y="221.94299"
   fill="#1c75bc"
   width="136.14301"
   height="11.095"
   id="rect34" />
				</g>
				<g
   id="g40">
					<path
   fill="#ffffff"
   d="m 1179.965,223.078 v 8.825 h -133.874 v -8.825 h 5.043 123.788 5.043 m 2.27,-2.27 h -2.269 -5.043 -123.788 -5.043 -2.269 v 2.269 8.825 2.269 h 2.269 133.874 2.269 v -2.269 -8.825 z"
   id="path38" />
				</g>
			</g>
			<g
   id="g52">
				<g
   id="g46">
					<polygon
   fill="#1c75bc"
   points="1122.349,201.014 1122.349,205.963 1175.091,213.887 1174.922,216.144 1051.135,216.144 1050.966,213.887 1103.708,205.963 1103.708,201.014 "
   id="polygon44" />
				</g>
				<g
   id="g50">
					<path
   fill="#ffffff"
   d="m 1121.214,202.149 v 4.791 l 53.708,8.069 h -123.788 l 53.708,-8.069 v -4.791 h 8.186 8.186 m 2.269,-2.269 h -2.269 -8.186 -8.186 -2.269 v 2.269 2.837 l -51.776,7.779 0.337,4.514 h 123.788 l 0.337,-4.514 -51.776,-7.779 v -2.837 z"
   id="path48" />
				</g>
			</g>
			<g
   id="g62">
				<g
   id="g56">
					<rect
   x="1044.957"
   y="249.67999"
   fill="#1c75bc"
   width="136.14301"
   height="207.14301"
   id="rect54" />
				</g>
				<g
   id="g60">
					<path
   fill="#ffffff"
   d="M 1179.965,250.814 V 455.688 H 1046.091 V 250.814 h 133.874 m 2.27,-2.269 h -2.269 -133.874 -2.269 v 2.269 204.874 2.269 h 2.269 133.874 2.269 v -2.269 -204.874 z"
   id="path58" />
				</g>
			</g>
			<g
   id="g72">
				<g
   id="g66">
					<rect
   x="1039.197"
   y="230.76801"
   fill="#1c75bc"
   width="147.664"
   height="21.181"
   id="rect64" />
				</g>
				<g
   id="g70">
					<path
   fill="#ffffff"
   d="m 1185.726,231.903 v 18.911 h -5.76 -133.874 -5.76 v -18.911 h 5.76 133.874 5.76 m 2.269,-2.269 h -2.269 -5.76 -133.874 -5.76 -2.269 v 2.269 18.911 2.269 h 2.269 5.76 133.874 5.76 2.269 v -2.269 -18.911 z"
   id="path68" />
				</g>
			</g>
		</g>
		<g
   id="g96">
			<g
   id="g84">
				<g
   id="g78">
					<rect
   x="1064.58"
   y="357.254"
   fill="#1c75bc"
   width="34.998001"
   height="39.799999"
   id="rect76" />
				</g>
				<g
   id="g82">
					<path
   fill="#ffffff"
   d="m 1098.443,358.388 v 37.53 h -32.728 v -37.53 h 32.728 m 2.27,-2.269 h -2.269 -32.728 -2.269 v 2.269 37.53 2.269 h 2.269 32.728 2.269 v -2.269 -37.53 z"
   id="path80" />
				</g>
			</g>
			<g
   id="g94">
				<g
   id="g88">
					<rect
   x="1126.479"
   y="357.254"
   fill="#1c75bc"
   width="34.997002"
   height="39.799999"
   id="rect86" />
				</g>
				<g
   id="g92">
					<path
   fill="#ffffff"
   d="m 1160.342,358.388 v 37.53 h -32.728 v -37.53 h 32.728 m 2.269,-2.269 h -2.269 -32.728 -2.269 v 2.269 37.53 2.269 h 2.269 32.728 2.269 v -2.269 -37.53 z"
   id="path90" />
				</g>
			</g>
		</g>
		<g
   id="g118">
			<g
   id="g106">
				<g
   id="g100">
					<rect
   x="1064.58"
   y="407.11401"
   fill="#1c75bc"
   width="34.998001"
   height="39.799999"
   id="rect98" />
				</g>
				<g
   id="g104">
					<path
   fill="#ffffff"
   d="m 1098.443,408.249 v 37.531 h -32.728 v -37.531 h 32.728 m 2.27,-2.269 h -2.269 -32.728 -2.269 v 2.269 37.531 2.269 h 2.269 32.728 2.269 v -2.269 -37.531 z"
   id="path102" />
				</g>
			</g>
			<g
   id="g116">
				<g
   id="g110">
					<rect
   x="1126.479"
   y="407.11401"
   fill="#1c75bc"
   width="34.997002"
   height="39.799999"
   id="rect108" />
				</g>
				<g
   id="g114">
					<path
   fill="#ffffff"
   d="m 1160.342,408.249 v 37.531 h -32.728 v -37.531 h 32.728 m 2.269,-2.269 h -2.269 -32.728 -2.269 v 2.269 37.531 2.269 h 2.269 32.728 2.269 v -2.269 -37.531 z"
   id="path112" />
				</g>
			</g>
		</g>
		<g
   id="g142">
			<g
   id="g128">
				<g
   id="g122">
					<rect
   x="1126.479"
   y="307.39301"
   fill="#1c75bc"
   width="34.997002"
   height="39.799999"
   id="rect120" />
				</g>
				<g
   id="g126">
					<path
   fill="#ffffff"
   d="m 1160.342,308.527 v 37.53 h -32.728 v -37.53 h 32.728 m 2.269,-2.269 h -2.269 -32.728 -2.269 v 2.269 37.53 2.269 h 2.269 32.728 2.269 v -2.269 -37.53 z"
   id="path124" />
				</g>
			</g>
			<g
   id="g140">
				<g
   id="g132">
					<rect
   x="1064.58"
   y="307.39301"
   fill="#ffffff"
   width="34.998001"
   height="39.799999"
   id="rect130" />
				</g>
				<g
   id="g138">
					<g
   id="g136">
						<path
   fill="#1c75bc"
   d="m 1098.443,308.527 v 37.53 h -32.728 v -37.53 h 32.728 m 2.27,-2.269 h -2.269 -32.728 -2.269 v 2.269 37.53 2.269 h 2.269 32.728 2.269 v -2.269 -37.53 z"
   id="path134" />
					</g>
				</g>
			</g>
		</g>
		<g
   id="g268">
			<g
   id="g204">
				<g
   id="g152">
					<g
   id="g146">
						<rect
   x="1062.868"
   y="258.75299"
   fill="#ffffff"
   width="13.031"
   height="20.412001"
   id="rect144" />
					</g>
					<g
   id="g150">
						<path
   fill="#1c75bc"
   d="m 1074.764,259.888 v 18.143 h -10.761 v -18.143 h 10.761 m 2.27,-2.269 h -2.269 -10.761 -2.269 v 2.269 18.143 2.269 h 2.269 10.761 2.269 v -2.269 -18.143 z"
   id="path148" />
					</g>
				</g>
				<g
   id="g162">
					<g
   id="g156">
						<rect
   x="1075.942"
   y="258.75299"
   fill="#ffffff"
   width="13.03"
   height="20.412001"
   id="rect154" />
					</g>
					<g
   id="g160">
						<path
   fill="#1c75bc"
   d="m 1087.838,259.888 v 18.143 h -10.761 v -18.143 h 10.761 m 2.269,-2.269 h -2.269 -10.761 -2.269 v 2.269 18.143 2.269 h 2.269 10.761 2.269 v -2.269 -18.143 z"
   id="path158" />
					</g>
				</g>
				<g
   id="g172">
					<g
   id="g166">
						<rect
   x="1089.015"
   y="258.75299"
   fill="#ffffff"
   width="13.031"
   height="20.412001"
   id="rect164" />
					</g>
					<g
   id="g170">
						<path
   fill="#1c75bc"
   d="m 1100.911,259.888 v 18.143 h -10.761 v -18.143 h 10.761 m 2.269,-2.269 h -2.269 -10.761 -2.269 v 2.269 18.143 2.269 h 2.269 10.761 2.269 v -2.269 -18.143 z"
   id="path168" />
					</g>
				</g>
				<g
   id="g182">
					<g
   id="g176">
						<rect
   x="1062.868"
   y="279.20801"
   fill="#ffffff"
   width="13.031"
   height="20.412001"
   id="rect174" />
					</g>
					<g
   id="g180">
						<path
   fill="#1c75bc"
   d="m 1074.764,280.343 v 18.143 h -10.761 v -18.143 h 10.761 m 2.27,-2.269 h -2.269 -10.761 -2.269 v 2.269 18.143 2.269 h 2.269 10.761 2.269 v -2.269 -18.143 z"
   id="path178" />
					</g>
				</g>
				<g
   id="g192">
					<g
   id="g186">
						<rect
   x="1075.942"
   y="279.20801"
   fill="#ffffff"
   width="13.03"
   height="20.412001"
   id="rect184" />
					</g>
					<g
   id="g190">
						<path
   fill="#1c75bc"
   d="m 1087.838,280.343 v 18.143 h -10.761 v -18.143 h 10.761 m 2.269,-2.269 h -2.269 -10.761 -2.269 v 2.269 18.143 2.269 h 2.269 10.761 2.269 v -2.269 -18.143 z"
   id="path188" />
					</g>
				</g>
				<g
   id="g202">
					<g
   id="g196">
						<rect
   x="1089.015"
   y="279.20801"
   fill="#ffffff"
   width="13.031"
   height="20.412001"
   id="rect194" />
					</g>
					<g
   id="g200">
						<path
   fill="#1c75bc"
   d="m 1100.911,280.343 v 18.143 h -10.761 v -18.143 h 10.761 m 2.269,-2.269 h -2.269 -10.761 -2.269 v 2.269 18.143 2.269 h 2.269 10.761 2.269 v -2.269 -18.143 z"
   id="path198" />
					</g>
				</g>
			</g>
			<g
   id="g266">
				<g
   id="g214">
					<g
   id="g208">
						<rect
   x="1124.011"
   y="258.75299"
   fill="#ffffff"
   width="13.03"
   height="20.412001"
   id="rect206" />
					</g>
					<g
   id="g212">
						<path
   fill="#1c75bc"
   d="m 1135.907,259.888 v 18.143 h -10.761 v -18.143 h 10.761 m 2.269,-2.269 h -2.269 -10.761 -2.269 v 2.269 18.143 2.269 h 2.269 10.761 2.269 v -2.269 -18.143 z"
   id="path210" />
					</g>
				</g>
				<g
   id="g224">
					<g
   id="g218">
						<rect
   x="1137.084"
   y="258.75299"
   fill="#ffffff"
   width="13.031"
   height="20.412001"
   id="rect216" />
					</g>
					<g
   id="g222">
						<path
   fill="#1c75bc"
   d="m 1148.98,259.888 v 18.143 h -10.761 v -18.143 h 10.761 m 2.27,-2.269 h -2.269 -10.761 -2.269 v 2.269 18.143 2.269 h 2.269 10.761 2.269 v -2.269 -18.143 z"
   id="path220" />
					</g>
				</g>
				<g
   id="g234">
					<g
   id="g228">
						<rect
   x="1150.158"
   y="258.75299"
   fill="#ffffff"
   width="13.03"
   height="20.412001"
   id="rect226" />
					</g>
					<g
   id="g232">
						<path
   fill="#1c75bc"
   d="m 1162.054,259.888 v 18.143 h -10.761 v -18.143 h 10.761 m 2.269,-2.269 h -2.269 -10.761 -2.269 v 2.269 18.143 2.269 h 2.269 10.761 2.269 v -2.269 -18.143 z"
   id="path230" />
					</g>
				</g>
				<g
   id="g244">
					<g
   id="g238">
						<rect
   x="1124.011"
   y="279.20801"
   fill="#ffffff"
   width="13.03"
   height="20.412001"
   id="rect236" />
					</g>
					<g
   id="g242">
						<path
   fill="#1c75bc"
   d="m 1135.907,280.343 v 18.143 h -10.761 v -18.143 h 10.761 m 2.269,-2.269 h -2.269 -10.761 -2.269 v 2.269 18.143 2.269 h 2.269 10.761 2.269 v -2.269 -18.143 z"
   id="path240" />
					</g>
				</g>
				<g
   id="g254">
					<g
   id="g248">
						<rect
   x="1137.084"
   y="279.20801"
   fill="#ffffff"
   width="13.031"
   height="20.412001"
   id="rect246" />
					</g>
					<g
   id="g252">
						<path
   fill="#1c75bc"
   d="m 1148.98,280.343 v 18.143 h -10.761 v -18.143 h 10.761 m 2.27,-2.269 h -2.269 -10.761 -2.269 v 2.269 18.143 2.269 h 2.269 10.761 2.269 v -2.269 -18.143 z"
   id="path250" />
					</g>
				</g>
				<g
   id="g264">
					<g
   id="g258">
						<rect
   x="1150.158"
   y="279.20801"
   fill="#ffffff"
   width="13.03"
   height="20.412001"
   id="rect256" />
					</g>
					<g
   id="g262">
						<path
   fill="#1c75bc"
   d="m 1162.054,280.343 v 18.143 h -10.761 v -18.143 h 10.761 m 2.269,-2.269 h -2.269 -10.761 -2.269 v 2.269 18.143 2.269 h 2.269 10.761 2.269 v -2.269 -18.143 z"
   id="path260" />
					</g>
				</g>
			</g>
		</g>
		<g
   id="g280">
			<g
   id="g278">
				<g
   id="g272">
					<rect
   x="1109.489"
   y="258.75299"
   fill="#1c75bc"
   width="7.079"
   height="189.38499"
   id="rect270" />
				</g>
				<g
   id="g276">
					<path
   fill="#ffffff"
   d="m 1115.433,259.888 v 187.115 h -4.81 V 259.888 h 4.81 m 2.27,-2.269 h -2.269 -4.81 -2.269 v 2.269 187.115 2.269 h 2.269 4.81 2.269 v -2.269 -187.115 z"
   id="path274" />
				</g>
			</g>
		</g>
		<g
   id="g290">
			<g
   id="g284">
				<rect
   x="1062.3361"
   y="236.75101"
   fill="#1c75bc"
   width="101.384"
   height="9.743"
   id="rect282" />
			</g>
			<g
   id="g288">
				<path
   fill="#ffffff"
   d="m 1162.586,237.885 v 7.474 h -99.115 v -7.474 h 99.115 m 2.269,-2.269 h -2.269 -99.115 -2.269 v 2.269 7.474 2.269 h 2.269 99.115 2.269 v -2.269 -7.474 z"
   id="path286" />
			</g>
		</g>
	</g>






</svg>
